<?xml version="1.0" standalone="no"?>
<!DOCTYPE svg PUBLIC "-//W3C//DTD SVG 1.1//EN" "http://www.w3.org/Graphics/SVG/1.1/DTD/svg11.dtd" >
<!--
2013-9-30: Created.
-->
<svg>
<metadata>
Created by iconfont
</metadata>
<defs>

<font id="iconfont" horiz-adv-x="1024" >
  <font-face
    font-family="iconfont"
    font-weight="500"
    font-stretch="normal"
    units-per-em="1024"
    ascent="896"
    descent="-128"
  />
    <missing-glyph />
    
    <glyph glyph-name="x" unicode="x" horiz-adv-x="1001"
d="M281 543q-27 -1 -53 -1h-83q-18 0 -36.5 -6t-32.5 -18.5t-23 -32t-9 -45.5v-76h912v41q0 16 -0.5 30t-0.5 18q0 13 -5 29t-17 29.5t-31.5 22.5t-49.5 9h-133v-97h-438v97zM955 310v-52q0 -23 0.5 -52t0.5 -58t-10.5 -47.5t-26 -30t-33 -16t-31.5 -4.5q-14 -1 -29.5 -0.5
t-29.5 0.5h-32l-45 128h-439l-44 -128h-29h-34q-20 0 -45 1q-25 0 -41 9.5t-25.5 23t-13.5 29.5t-4 30v167h911zM163 247q-12 0 -21 -8.5t-9 -21.5t9 -21.5t21 -8.5q13 0 22 8.5t9 21.5t-9 21.5t-22 8.5zM316 123q-8 -26 -14 -48q-5 -19 -10.5 -37t-7.5 -25t-3 -15t1 -14.5
t9.5 -10.5t21.5 -4h37h67h81h80h64h36q23 0 34 12t2 38q-5 13 -9.5 30.5t-9.5 34.5q-5 19 -11 39h-368zM336 498v228q0 11 2.5 23t10 21.5t20.5 15.5t34 6h188q31 0 51.5 -14.5t20.5 -52.5v-227h-327z" />
    

    
    <glyph glyph-name="feiji" unicode="&#59124;" d="M407.388942-148.836425 285.321816-148.836425l110.877273 332.62875L236.00255 183.792325l-88.690972-110.877273L24.368502 72.915052l83.932598 209.837122L24.368502 492.588273l122.942053 0 88.690972-110.877273 160.196539 0L285.321816 714.33975l122.067126 0 221.7525-332.62875 245.307985 0c2.495844 0 25.057699-0.333598 48.157813-11.882632 32.761148-16.380062 50.80306-47.304376 50.80306-87.076194s-18.042935-70.696132-50.80306-87.077218c-23.100114-11.550057-45.661969-11.882632-48.158836-11.882632L629.140419 183.792325 407.388942-148.836425zM354.81147-98.751726l25.77299 0 221.7525 332.62875 271.961018 0c0.836041 0.021489 14.458293 0.484024 27.068496 7.191796 14.981203 7.970532 21.959128 21.215184 21.959128 41.682331 0 20.958334-7.346315 34.393321-23.115464 42.277896-12.417821 6.208399-25.634844 6.596232-25.76071 6.596232L602.335936 331.625278 380.58446 664.254028l-25.77299 0 110.877273-332.62875-253.759471 0-88.690972 110.877273-24.8909 0 63.899332-159.750377-63.899332-159.751401 24.8909 0 88.691995 110.877273 253.759471 0L354.81147-98.751726z"  horiz-adv-x="1024" />

    
    <glyph glyph-name="fangkuai" unicode="&#59477;" d="M65.166185 746.855304l893.016807 0 0-893.016807-893.016807 0 0 893.016807Z"  horiz-adv-x="1024" />

    
    <glyph glyph-name="icon" unicode="&#58881;" d="M778.95347-192.485551c-5.823636 0-11.649318 0-17.472953 0-12.078083 5.164626-24.709775 9.324366-36.137035 15.661701-68.017116 37.712927-135.792733 75.857688-203.51309 114.099664-5.748934 3.247974-10.048867 3.28072-15.783475 0.017396-41.789779-23.778566-83.414805-47.892777-125.802194-70.570265-37.706787-20.173458-72.528873-45.972031-113.842815-59.207473-5.824659 0-11.649318 0-17.473977 0-2.105964 0.722454-4.168949 1.635243-6.327102 2.140757-36.148291 8.470929-59.876716 42.643216-54.135968 79.345116 13.727653 87.767949 27.767414 175.48678 42.067095 263.162632 1.038656 6.374174-0.521886 10.171664-4.668323 14.437827-22.547529 23.199375-44.86072 46.6249-67.275219 69.952188-37.655621 39.191604-75.429946 78.269621-112.950492 117.590162-19.548218 20.48659-25.203008 45.062312-17.140379 71.814606 7.77508 25.795503 25.808806 42.090631 52.208059 48.257074 9.725502 2.272763 19.745716 3.292999 29.641087 4.824889 72.788793 11.269671 145.558144 22.661116 218.396055 33.600259 8.433066 1.266853 12.487406 5.157463 15.906272 12.621459 34.574447 75.474972 69.579705 150.751423 104.310717 226.154763 7.143701 15.509229 17.379832 28.115338 32.742728 35.731806 7.427156 3.681856 15.642259 5.773494 23.50125 8.582469 5.823636 0 11.649318 0 17.472953 0 32.837896-6.656607 50.04172-28.931936 63.044872-58.253752 31.82073-71.750137 65.563228-142.645814 98.333586-213.978443 2.799766-6.093788 6.051833-9.339716 13.21293-10.420327 77.942163-11.762905 155.770739-24.275893 233.737462-35.867906 24.406876-3.628644 45.680389-11.389398 59.876716-32.893154 19.150152-29.002544 15.030321-65.587787-10.620895-92.315522-59.364039-61.856813-118.838595-123.608226-178.033789-185.630814-2.863211-2.99931-5.430686-8.463766-4.835122-12.262278 13.423731-85.527932 26.714432-171.083493 41.337477-256.408811 8.405437-49.039903-21.255093-79.44847-49.691749-87.11508C785.648962-190.331491 782.31503-191.458151 778.95347-192.485551zM769.575892-120.519496c-0.196475 4.233418-0.058328 7.072069-0.496304 9.8176-13.580297 84.839247-26.979468 169.71124-40.981367 254.482949-4.516874 27.340695 2.39863 50.117444 21.661346 70.022797 58.491159 60.439534 116.635417 121.216759 174.891216 181.88449 2.51631 2.62171 4.800329 5.465478 8.112772 9.255805-82.09474 12.755512-162.096818 25.8876-242.342444 37.316907-33.130561 4.716418-55.631018 19.784602-69.536726 50.780547-33.180703 73.967642-67.796082 147.291624-101.850689 220.865293-1.401929 3.025916-2.99931 5.958712-5.177929 10.266831-2.298346-4.748141-3.880377-7.887644-5.354961-11.076266-34.846646-75.343989-69.726038-150.673651-104.496959-226.052432-10.474562-22.708188-27.474748-37.986149-52.150754-42.058908-63.1032-10.414187-126.378316-19.778462-189.5818-29.588899-21.837354-3.390213-43.663452-6.852058-67.470671-10.593266 3.942799-4.252861 6.459109-7.055696 9.064446-9.768481 58.497299-60.883649 116.931153-121.827673 175.551248-182.594665 17.371646-18.006096 25.015743-39.275515 21.167089-63.800072-11.618619-74.031087-23.846104-147.967006-35.780925-221.947951-2.449795-15.186887-4.66116-30.411637-7.286963-47.610344 5.002944 2.620687 8.117888 4.152577 11.142781 5.850242 68.772316 38.569434 137.647987 76.957743 206.240201 115.844401 26.319435 14.920828 51.697429 14.980179 78.037331 0.037862 68.301596-38.744419 136.891763-76.981279 205.377554-115.402333C761.616616-116.442644 765.016039-118.127006 769.575892-120.519496z"  horiz-adv-x="1024" />

    
    <glyph glyph-name="xingxing" unicode="&#58915;" d="M712.704 290.784l-49.152 96.256-112.64 24.576 79.872 86.016-6.144 62.464c-225.28-272.384-334.848-652.288-334.848-652.288C455.68 167.904 645.12 263.136 712.704 290.784zM168.96 514.016l83.968-31.744-18.432 90.112 55.296 71.68-89.088 10.24L151.552 730.08l-36.864-83.968-86.016-24.576 66.56-61.44-4.096-92.16L168.96 514.016zM738.304 300l-4.096 11.264-8.192-15.36C734.208 298.976 738.304 300 738.304 300zM626.688 435.168l112.64-22.528 53.248-94.208 57.344 92.16 113.664 18.432-76.8 78.848 16.384 105.472-105.472-43.008L694.272 617.44 706.56 510.944 626.688 435.168zM755.712-33.824c13.312-2.048 20.48-3.072 20.48-3.072l-3.072 24.576L755.712-33.824zM753.664 168.928c-6.144-2.048-12.288-4.096-18.432-5.12l21.504-20.48L753.664 168.928zM303.104 574.432l-31.744-40.96 18.432-90.112-83.968 31.744-77.824-45.056 1.024 15.36-26.624-20.48c0 0 157.696-189.44 155.648-555.008C258.048-130.08 375.808 393.184 303.104 574.432zM663.552 53.216l56.32 39.936 8.192 67.584C445.44 71.648 289.792-130.08 289.792-130.08c115.712 119.808 348.16 108.544 443.392 98.304l-10.24 51.2L663.552 53.216zM919.552 139.232l-65.536-11.264-50.176 41.984-9.216-63.488-56.32-33.792 59.392-28.672 15.36-62.464 46.08 46.08 65.536-5.12-30.72 56.32L919.552 139.232z"  horiz-adv-x="1024" />

    
    <glyph glyph-name="shouye" unicode="&#58886;" d="M389.34542 721.776C239.74142 597.604 152.69142 515.337 22.37542 372.509c-32.407-42.489-27.145-121.535 0-121.535 84.309 0 121.535 0 121.535 0s0-151.414 0-303.838c0-44.695 6.368-121.535 53.396-121.535 76.999 0 189.674 0 189.674 0L386.98042 129.445l243.07 0 0-303.844c0 0 98.231 0 175.217 0 35.391 0 67.853 32.158 67.853 121.535 0 156.355 0 303.838 0 303.838s47.648 0 121.535 0c36.138 0 42.003 85.998 0 121.535C875.36942 493.837 741.09142 611.173 611.12242 717.766 508.51642 797.882 452.78642 787.26 389.34542 721.776z"  horiz-adv-x="1026" />

    
    <glyph glyph-name="qian" unicode="&#58961;" d="M522.74688 712.145664c-229.79072 0-416.768-186.943488-416.768-416.748544 0-229.812224 186.976256-416.753664 416.768-416.753664s416.768 186.942464 416.768 416.753664C939.51488 525.202176 752.538624 712.145664 522.74688 712.145664zM522.74688-76.64768c-205.14304 0-372.028416 166.90176-372.028416 372.0448 0 205.138944 166.885376 372.02432 372.028416 372.02432s372.02944-166.8864 372.02944-372.02432C894.77632 90.25408 727.88992-76.64768 522.74688-76.64768zM623.566848 513.39136l-66.18112-121.950208c-17.664-33.040384-28.43136-55.021568-32.390144-65.902592l-1.14176 0c-11.63264 26.474496-44.476416 89.071616-98.551808 187.8528l-62.25408 0 115.759104-198.836224-94.908416 0 0-43.956224 111.248384 0 0-60.546048L383.899648 210.052864l0-44.476416 111.248384 0 0-88.178688 55.199744 0 0 88.178688 107.318272 0 0 44.476416L550.346752 210.052864l0 60.546048 107.318272 0 0 43.956224L565.56544 314.555136 682.447872 513.39136 623.566848 513.39136z"  horiz-adv-x="1024" />

    
    <glyph glyph-name="5" unicode="&#58922;" d="M860.193237 432.608068C833.504388 537.442718 745.82342 779.522172 511.998977 779.522172c-233.824443 0-321.505411-242.079454-348.189144-346.914104-26.689872-104.839767-43.842531-245.89434 11.437493-331.666842 55.274908-85.778642 184.890964-112.462375 184.890964-112.462375s-41.936111 47.6523-76.243475 163.928536c-34.31248 116.272143-26.688849 224.926796-3.814886 245.8882 8.851599 8.108678 28.625968 5.195326 56.105832-1.503237 2.263553-0.549515 15.854083 14.848173 15.854083 14.848173l5.505387-20.306488c1.246387-0.321318 2.49789-0.654916 3.761674-0.983397l19.797905 29.867238c0 0 8.734942-37.185924 13.292748-38.291095 34.762735-8.395204 74.961272-16.194844 117.599372-16.673751 113.095801 1.27504 209.042014 54.011124 231.918024 33.04358 22.874987-20.962427 30.498618-129.616056-3.814886-245.8882-34.30634-116.27726-76.242452-163.928536-76.242452-163.928536s129.616056 26.683732 184.897104 112.462375C904.031675 186.714751 886.877993 327.768301 860.193237 432.608068z"  horiz-adv-x="1024" />

    
    <glyph glyph-name="shuqianguanli" unicode="&#59339;" d="M846.973656 295.321444 448.19737 694.089543l-383.894344-1.465374 0.589424-353.314885 413.035034-413.035034c25.907043-25.935696 67.573002-26.28362 93.053326-0.796132l276.762371 276.788977C873.220437 227.754582 872.880699 269.421564 846.973656 295.321444zM230.037698 464.665317c-36.020378 0-65.214281 29.205159-65.214281 65.234747 0 36.028565 29.192879 65.24191 65.214281 65.24191 36.056194 0 65.252143-29.213345 65.252143-65.24191C295.288818 493.870476 266.093892 464.665317 230.037698 464.665317zM940.026982 294.525312 541.248649 693.295458l-47.991014-0.161682 400.242683-398.196071c25.924439-25.935696 26.246781-67.565838 0.768503-93.053326L617.488031-74.904599c-6.754844-6.754844-14.686491-11.568477-23.137976-14.72333 23.51353-9.031701 50.957579-4.3951 69.664639 14.303774l276.780791 276.798187C966.290135 226.96152 965.950398 268.627479 940.026982 294.525312z"  horiz-adv-x="1024" />

    
    <glyph glyph-name="gouwuche" unicode="&#58890;" d="M994.372267 623.0016c-21.674667-45.8752-117.3504-266.786133-130.389333-287.232-1.536-2.423467-2.935467-4.8128-4.266667-7.0656-12.6976-21.777067-26.112-38.434133-72.465067-38.434133L345.4976 290.269867c9.284267-28.125867 28.535467-62.839467 68.642133-62.839467l382.429867 0c11.332267 0 20.48-9.181867 20.48-20.48 0-11.298133-9.147733-20.48-20.48-20.48L414.139733 186.4704c-56.763733 0-98.167467 44.4416-113.664 112.5376-8.533333 37.546667-112.0256 383.8976-119.432533 411.0336-7.953067 17.237333-26.4192 29.627733-44.373333 29.627733L42.496 739.669333c-11.298133 0-20.48 9.181867-20.48 20.48 0 11.298133 9.181867 20.445867 20.48 20.445867l94.173867 0c35.1232 0 68.266667-1.877333 82.5344-35.157333 0.375467-0.887467 0.682667-1.7408 0.955733-2.696533 4.061867-14.882133 89.873067-319.1808 114.346667-411.5456l452.744533 0c26.555733 0 29.218133 4.539733 37.102933 18.1248 1.604267 2.730667 3.242667 5.5296 5.085867 8.430933 12.151467 19.080533 107.1104 238.6944 127.351467 281.3952 8.430933 22.084267 6.894933 34.0992 4.573867 37.512533-1.536 2.184533-6.417067 3.515733-13.1072 3.515733-44.373333-0.648533-606.685867-0.034133-626.210133 0-11.332267 0.034133-20.48 9.181867-20.445867 20.48 0.034133 11.332267 9.181867 20.445867 20.48 20.445867l0.034133 0c4.8128 0 581.5296-0.682667 625.8688 0 26.965333 0 40.516267-11.5712 47.172267-21.2992C1007.4112 681.949867 1007.138133 656.0768 994.372267 623.0016zM403.285333 166.161067c52.736 0 95.6416-42.9056 95.6416-95.6416 0-52.736-42.9056-95.675733-95.6416-95.675733s-95.6416 42.939733-95.6416 95.675733C307.677867 123.221333 350.549333 166.161067 403.285333 166.161067zM403.285333 14.1312c31.061333 0 56.32 25.2928 56.32 56.354133 0 31.061333-25.258667 56.32-56.32 56.32-31.0272 0-56.285867-25.258667-56.285867-56.32C346.999467 39.424 372.258133 14.1312 403.285333 14.1312zM792.405333 166.161067c52.736 0 95.6416-42.9056 95.6416-95.6416 0-52.736-42.9056-95.675733-95.6416-95.675733-52.736 0-95.6416 42.939733-95.6416 95.675733C696.797867 123.221333 739.669333 166.161067 792.405333 166.161067zM792.405333 14.1312c31.061333 0 56.32 25.2928 56.32 56.354133 0 31.061333-25.258667 56.32-56.32 56.32-31.0272 0-56.285867-25.258667-56.285867-56.32C736.119467 39.424 761.378133 14.1312 792.405333 14.1312z"  horiz-adv-x="1024" />

    
    <glyph glyph-name="zhuanshi" unicode="&#58944;" d="M511.999488-18.496004 78.881047 465.144088l162.405857 214.938304 541.396517 0L945.11793 465.144088 511.999488-18.496004 511.999488-18.496004zM631.566678 404.312628l-119.567189-19.786649-119.571283 19.786649 119.571283-257.105682L631.566678 404.312628 631.566678 404.312628zM633.800555 458.408687l40.60479 6.706749L629.275495 465.115436 633.800555 458.408687 633.800555 458.408687zM690.218496 414.006408 570.651306 156.904819l239.10982 276.888238L690.218496 414.006408 690.218496 414.006408zM453.34767 156.904819 333.776388 414.006408l-119.567189 19.786649L453.34767 156.904819 453.34767 156.904819zM206.274482 488.84079l183.919846-30.43108 4.500501 6.706749-45.128827 0-69.605288 115.182322L206.274482 488.84079 206.274482 488.84079zM322.515926 599.464283l76.928067-127.276778 85.47779 127.276778L322.515926 599.464283 322.515926 599.464283zM438.900633 450.361407l73.098855-12.099572 73.099878 12.099572-73.099878 108.810195L438.900633 450.361407 438.900633 450.361407zM539.077194 599.464283l85.47779-127.276778 76.923974 127.276778L539.077194 599.464283 539.077194 599.464283zM744.038262 580.270129l-69.605288-115.154693 143.31915 23.696702L744.038262 580.270129 744.038262 580.270129zM744.038262 580.270129"  horiz-adv-x="1024" />

    
    <glyph glyph-name="99" unicode="&#58993;" d="M299.618938 1.160685c61.960167 94.636381 106.947777 166.416194 133.73384 213.381855 26.944676 47.255257 49.961902 93.758384 68.415183 138.217968 18.402115 44.354184 30.622438 82.57774 36.319184 113.608477 5.695722 31.06246 8.583492 58.521858 8.583492 81.613786 0 26.6428-4.447289 54.328349-13.217023 82.285075-8.706289 27.751041-23.239284 52.311413-43.196825 72.999594-19.954471 20.678972-45.280276 36.603663-75.274404 47.332005-30.149671 10.775414-62.292742 16.238846-95.534843 16.238846-45.690622 0-88.115873-9.53619-126.096906-28.342512-37.849026-18.745946-67.642586-45.950542-88.546685-80.858586C83.867106 622.697427 73.252351 582.612477 73.252351 538.49877c0-39.328727 8.653077-74.268494 25.719778-103.849206 16.983813-29.463032 43.234687-52.022841 78.021981-67.055209 35.06154-15.159258 74.355475-22.845311 116.78789-22.845311 13.564947 0 29.211299 0.839111 46.506197 2.493797 16.883529 1.616824 41.886993 5.67014 74.340125 12.04943 3.14769 11.502985 6.548136 22.153556 10.148128 31.781844-31.521924-9.074679-56.897871-15.023158-75.506694-17.697057-19.934005-2.865257-38.22765-4.318352-54.372352-4.318352-28.194132 0-55.447846 4.480035-81.004919 13.316284-25.764803 8.896624-46.6556 22.102391-62.089104 39.250956-15.398712 17.108656-26.190499 36.863582-32.075533 58.715263-5.824659 21.584598-8.778944 43.781132-8.778944 65.969481 0 36.580127 8.902764 70.25611 26.461675 100.090603 17.579377 29.857005 42.85504 53.608965 75.127048 70.594825 32.19526 16.944927 68.351738 25.536606 107.464547 25.536606 27.067472 0 52.931536-4.38896 76.871785-13.046131 24.078395-8.719592 45.12985-22.745027 62.569034-41.686425 17.394159-18.900465 30.519084-41.296545 39.013549-66.566068 8.456602-25.171286 12.745279-51.267641 12.745279-77.564563 0-39.947827-8.131191-85.723384-24.166399-136.053676-16.004509-50.201355-44.458561-110.657262-84.574211-179.690522-39.080064-67.254753-90.308819-143.44911-152.330384-226.576365 6.891967 0.194428 14.222933 0.291642 21.890566 0.291642C281.525861 1.640616 290.799062 1.479957 299.618938 1.160685zM588.697823 267.744229c-5.332449 0-12.743232 0.132006-22.027689 0.38988l-1.219781 0.032746-0.063445-1.216711c-0.265036-5.148253-0.464581-10.943236-0.594541-17.222243-0.134053-6.248308-0.596588-14.766308-1.375324-25.318642l-0.102331-1.378393 1.382487 0.037862c9.410324 0.261966 16.617469 0.38988 22.029736 0.38988 5.145184 0 12.223393-0.127913 21.638833-0.38988l1.181919-0.032746 0.097214 1.177825c0.520863 6.250354 0.915859 13.035898 1.176802 20.170388 0.25071 7.0383 0.64366 14.580067 1.169639 22.417569l0.091074 1.370207-1.373277-0.038886C601.694835 267.875213 594.289168 267.744229 588.697823 267.744229zM941.316859 668.527219c-6.274914 20.002566-16.753569 37.709857-31.142278 52.629661-14.387685 14.908548-32.615838 26.378787-54.177923 34.090423-21.524223 7.692193-44.462654 11.593036-68.178799 11.593036-32.584116 0-62.85863-6.810103-89.981361-20.24202-27.175943-13.4575-48.569182-32.999578-63.58927-58.080813-15.019065-25.067932-22.63451-53.79623-22.63451-85.386716 0-28.218692 6.231935-53.328579 18.523889-74.629721 12.31242-21.35947 31.298843-37.696554 56.431244-48.557926 25.03007-10.821463 53.05024-16.307408 83.285868-16.307408 9.639544 0 20.716834 0.592494 32.923854 1.76111 12.216229 1.169639 30.390147 4.133134 54.016241 8.806573l0.762363 0.150426 0.201591 0.750083c2.835581 10.567683 5.973038 20.110013 9.323343 28.360931l0.973164 2.39863-2.482541-0.730641c-24.272823-7.141654-43.593867-11.771091-57.426921-13.759375-13.775748-1.980097-26.39516-2.982938-37.509289-2.982938-19.301602 0-37.953404 3.064802-55.435567 9.109472-17.410532 6.010901-31.492248 14.894222-41.854247 26.405393-10.364045 11.517311-17.629519 24.814152-21.590737 39.519062-3.987824 14.776542-6.008854 29.974685-6.008854 45.171806 0 24.910343 6.05081 47.822169 17.98563 68.098981 11.93482 20.270672 29.111015 36.405141 51.055816 47.955198 21.973454 11.565407 46.678112 17.429974 73.426313 17.429974 18.498306 0 36.158525-2.995217 52.489468-8.901741 16.264429-5.888104 30.485315-15.363919 42.268686-28.161387 11.802814-12.824073 20.713764-28.034497 26.487258-45.207621 5.788843-17.226337 8.723685-35.07996 8.723685-53.06252 0-27.566846-5.631254-59.214636-16.736173-94.062306-11.114129-34.866089-30.916127-76.927043-58.856479-125.014248-27.964912-48.124044-64.859193-102.83204-109.660562-162.605402l-1.577938-2.103918 2.62785 0.107447c6.300496 0.258896 13.247722 0.388856 20.648272 0.388856 7.134491 0 14.081717-0.130983 20.647249-0.388856l0.706081-0.027629 0.387833 0.591471c43.817971 66.894549 75.628468 117.634164 94.548376 150.809751 18.931165 33.19503 35.116799 65.892733 48.105624 97.185436 12.986779 31.302937 21.617343 58.323337 25.653263 80.31214 4.02978 21.967314 6.072299 41.423435 6.072299 57.828057C950.746626 628.813728 947.574377 648.582981 941.316859 668.527219z"  horiz-adv-x="1024" />

    
    <glyph glyph-name="honghuaxian" unicode="&#58980;" d="M672.427-73.387c-64.853 0-122.88 30.72-163.84 78.507-37.547-47.787-98.987-78.507-163.84-78.507-116.053 0-208.213 92.16-208.213 208.213 0 40.96 10.24 81.92 34.133 112.64-85.333 27.307-143.36 105.813-143.36 197.973 0 116.053 92.16 208.213 208.213 208.213 20.48 0 44.373-3.413 64.853-10.24 0 116.053 92.16 208.213 208.213 208.213s208.213-92.16 208.213-208.213c20.48 6.827 40.96 10.24 64.853 10.24 116.053 0 208.213-92.16 208.213-208.213 0-92.16-58.027-170.667-143.36-197.973 20.48-34.133 34.133-71.68 34.133-112.64 0-116.053-92.16-208.213-208.213-208.213zM508.587 76.8c10.24 0 17.067-6.827 23.893-13.653 27.307-54.613 81.92-85.333 139.947-85.333 85.333 0 157.013 71.68 157.013 157.013 0 40.96-17.067 81.92-47.787 112.64-6.827 6.827-10.24 17.067-6.827 27.307 3.413 10.24 10.24 17.067 20.48 17.067 81.92 6.827 139.947 75.093 139.947 157.013 0 85.333-71.68 157.013-157.013 157.013-27.307 0-58.027-6.827-81.92-23.893-10.24-6.827-20.48-3.413-27.307 0-6.827 6.827-13.653 17.067-10.24 27.307 3.413 10.24 3.413 23.893 3.413 37.547 0 85.333-71.68 157.013-157.013 157.013-85.333 0-157.013-71.68-157.013-157.013 0-13.653 0-23.893 3.413-37.547 3.413-10.24 0-20.48-10.24-27.307-6.827-6.827-20.48-6.827-27.307 0-20.48 13.653-47.787 20.48-75.093 20.48-85.333 0-157.013-71.68-157.013-157.013 0-81.92 61.44-146.773 139.947-157.013 10.24 0 17.067-6.827 20.48-17.067 3.413-10.24 0-20.48-6.827-27.307-30.72-30.72-47.787-68.267-47.787-112.64 0-85.333 71.68-157.013 157.013-157.013 58.027 0 112.64 34.133 139.947 85.333 6.827 13.653 17.067 17.067 23.893 17.067zM440.32 390.827c-0-37.703 30.564-68.267 68.267-68.267s68.267 30.564 68.267 68.267c0 37.703-30.564 68.267-68.267 68.267-37.703 0-68.267-30.564-68.267-68.267z"  horiz-adv-x="1024" />

    
    <glyph glyph-name="leimupinleifenleileibie" unicode="&#59385;" d="M320 384 192 384c-70.4 0-128-57.6-128-128l0-128c0-70.4 57.6-128 128-128l128 0c70.4 0 128 57.6 128 128l0 128C448 326.4 390.4 384 320 384zM384 128c0-35.2-28.8-64-64-64L192 64c-35.2 0-64 28.8-64 64l0 128c0 35.2 28.8 64 64 64l128 0c35.2 0 64-28.8 64-64L384 128zM768 832l-128 0C569.6 832 512 774.4 512 704l0-128c0-70.4 57.6-128 128-128l128 0c70.4 0 128 57.6 128 128L896 704C896 774.4 838.4 832 768 832zM832 576c0-35.2-28.8-64-64-64l-128 0C604.8 512 576 540.8 576 576L576 704c0 35.2 28.8 64 64 64l128 0c35.2 0 64-28.8 64-64L832 576zM768 384l-128 0c-70.4 0-128-57.6-128-128l0-128c0-70.4 57.6-128 128-128l128 0c70.4 0 128 57.6 128 128l0 128C896 326.4 838.4 384 768 384zM832 128c0-35.2-28.8-64-64-64l-128 0c-35.2 0-64 28.8-64 64l0 128c0 35.2 28.8 64 64 64l128 0c35.2 0 64-28.8 64-64L832 128zM320 832 192 832C121.6 832 64 774.4 64 704l0-128c0-70.4 57.6-128 128-128l128 0c70.4 0 128 57.6 128 128L448 704C448 774.4 390.4 832 320 832zM384 576c0-35.2-28.8-64-64-64L192 512C156.8 512 128 540.8 128 576L128 704c0 35.2 28.8 64 64 64l128 0c35.2 0 64-28.8 64-64L384 576z"  horiz-adv-x="1024" />

    
    <glyph glyph-name="zuji" unicode="&#58952;" d="M881.653 524.171c-4.609-82.102-2.027-161.533-2.027-161.533l-198.295-6.633c0 0 13.877 28.672-13.414 82.562-56.678 115.386-118.38 262.533 11.871 299.092 94.477 23.833 178.562 25.954 199.75-98.191 6.839-40.293 4.265-77.308 2.116-115.296l0 0zM407.431 176.446l-198.757 6.638c0 0 2.539 79.428-2.076 161.533-2.143 37.94-4.75 75.002 2.167 115.248 21.162 124.235 105.454 122.023 200.256 98.239 130.553-36.605 68.69-183.754 11.846-299.092-27.386-53.892-13.437-82.565-13.437-82.565l0 0zM387.747 34.322c-52.16-18.947-157.962-49.601-181.15 107.874l204.29 0c0.001 0 29.024-88.929-23.141-107.874l0 0zM881.653 321.792c-23.141-157.521-128.644-126.863-180.639-107.963-52.093 18.993-23.141 107.963-23.141 107.963l203.781 0z"  horiz-adv-x="1024" />

    
    <glyph glyph-name="bao" unicode="&#59073;" d="M934.48951 620.819181c-1.022977 14.321678-19.436563 29.666334-36.827173 29.666334L777.974026 650.485514c0 10.22977-2.045954 40.919081-6.137862 58.30969 0 2.045954 0 4.091908 0 6.137862-3.068931 20.45954-9.206793 37.85015-17.390609 54.217782-2.045954 4.091908-3.068931 6.137862-3.068931 6.137862s0-1.022977-1.022977-1.022977C706.365634 856.103896 607.136863 885.77023 538.597403 885.77023c-1.022977 0-4.091908 0-4.091908 0C450.621379 885.77023 320.703297 839.736264 301.266733 713.91009c-3.068931-17.390609 11.252747-32.735265 29.666334-32.735265l1.022977 0c15.344655 0 28.643357 11.252747 30.689311 25.574426 9.206793 56.263736 50.125874 86.953047 92.067932 106.38961C481.310689 825.414585 512 828.483516 537.574426 828.483516c35.804196 0 65.470529-8.183816 87.976024-17.390609 38.873127-16.367632 73.654346-48.07992 84.907093-98.205794 3.068931-21.482517 4.091908-51.148851 4.091908-61.378621L129.406593 651.508492c-29.666334 0-34.781219-15.344655-36.827173-29.666334l-72.631369-726.313686c-1.022977-7.160839 2.045954-12.275724 8.183816-17.390609s15.344655-6.137862 24.551449-6.137862l921.702298 0c9.206793 0 17.390609 0 24.551449 6.137862 6.137862 5.114885 10.22977 12.275724 9.206793 20.45954L934.48951 620.819181zM129.406593-75.828172 92.579421-75.828172l73.654346 664.935065 695.624376 0 73.654346-664.935065L129.406593-75.828172zM310.473526 461.234765m-59.332667 0a5.8 5.8 0 1 0 118.665335 0 5.8 5.8 0 1 0-118.665335 0ZM722.733267 461.234765m-59.332667 0a5.8 5.8 0 1 0 118.665335 0 5.8 5.8 0 1 0-118.665335 0Z"  horiz-adv-x="1024" />

    
    <glyph glyph-name="huaxian" unicode="&#58923;" d="M685.799348-36.689365c-39.875173 0-78.631872 10.93505-112.082728 31.623231-24.579815 15.202237-45.560662 35.147498-61.715597 58.507532-16.153912-23.360034-37.134759-43.304272-61.715597-58.507532-33.450856-20.688181-72.207555-31.623231-112.080681-31.623231-55.914474 0-108.513436 20.951171-148.107199 58.995649-39.765679 38.208207-61.665455 89.057315-61.665455 143.181003 0 41.560558 13.851473 82.293261 39.35431 116.616998-27.865651 15.879666-51.626821 37.72316-69.430302 63.98222-22.271236 32.849152-34.043351 71.048149-34.043351 110.467951 0 54.335513 21.890566 105.389282 61.639872 143.755078 39.597857 38.219463 92.206028 59.268872 148.133805 59.268872 10.929934 0 22.2477-1.029446 34.283828-3.12927C333.406462 743.226524 416.561347 804.689365 512 804.689365c95.434559 0 178.592514-61.463864 203.63384-148.241252 12.034081 2.099824 23.351847 3.12927 34.284851 3.12927 55.92573 0 108.531855-21.048385 148.129712-59.268872 39.749306-38.366819 61.638849-89.419566 61.638849-143.755078 0-39.419801-11.772115-77.618798-34.044374-110.467951-17.803481-26.25906-41.562605-48.102554-69.429279-63.98222 25.501814-34.32169 39.358403-75.058486 39.358403-116.616998 0-54.122665-21.899776-104.971773-61.665455-143.181003C794.312784-15.738194 741.714845-36.689365 685.799348-36.689365zM511.998977 118.737544l14.016225-27.542286c30.270421-59.482743 91.495854-96.433306 159.78517-96.433306 98.327446 0 178.322361 76.587306 178.322361 170.725336 0 40.863686-15.252379 79.31544-44.10859 111.201661l-14.487969 16.010649 19.682271 8.876158c62.587454 28.226878 103.028515 89.059362 103.028515 154.9787 0 94.605681-79.992869 171.573657-178.317245 171.573657-12.977569 0-26.823925-1.777483-42.330084-5.433756l-15.797801-3.724835-3.224438 15.906272c-16.248056 80.172971-90.506317 138.364301-176.568415 138.364301-86.064145 0-160.319335-58.190307-176.562275-138.363278l-3.222391-15.906272-15.796778 3.723811c-15.728216 3.707438-29.1806 5.433756-42.332131 5.433756-98.327446 0-178.322361-76.967976-178.322361-171.573657 0-65.919339 40.441061-126.752846 103.027491-154.9787l19.681248-8.875135-14.485923-16.010649c-28.853142-31.888268-44.104497-70.342068-44.104497-111.202685 0-94.139054 79.994915-170.725336 178.322361-170.725336 68.291362 0 129.514749 36.951587 159.780053 96.432283L511.998977 118.737544zM512 263.659191c-68.216661 0-123.715673 53.984518-123.715673 120.340809s55.499012 120.340809 123.715673 120.340809c68.217684 0 123.715673-53.984518 123.715673-120.340809S580.217684 263.659191 512 263.659191zM512 472.890516c-50.874691 0-92.26538-39.876196-92.26538-88.890516 0-49.015344 41.390689-88.890516 92.26538-88.890516s92.26538 39.876196 92.26538 88.890516C604.26538 433.01432 562.874691 472.890516 512 472.890516z"  horiz-adv-x="1024" />

    
    <glyph glyph-name="five-shape" unicode="&#58940;" d="M235.408-50.006l-170.933 526.117 447.503 325.125 447.525-325.125-170.932-526.117z"  horiz-adv-x="1024" />

    
    <glyph glyph-name="qianbao" unicode="&#58891;" d="M991.503059 582.384941c2.123294 102.460235-19.742118 172.468706-66.861176 213.76-41.938824 36.728471-102.249412 48.158118-184.350118 34.876235l-557.974588-88.847059c-0.602353-0.090353-1.189647-0.210824-1.761882-0.361412-117.76-29.876706-135.845647-151.868235-138.450824-222.162824-0.240941-3.734588-0.406588-7.499294-0.406588-11.294118L40.854588 119.04c0-96.090353 78.155294-174.290824 174.215529-174.290824l618.767059 0c96.060235 0 174.185412 78.200471 174.185412 174.290824L1008.022588 508.340706C1008.022588 534.799059 1002.089412 559.887059 991.503059 582.384941zM189.500235 702.960941l557.071059 88.711529c70.656 11.414588 118.904471 3.297882 151.762824-25.509647 28.988235-25.389176 46.215529-68.367059 51.591529-128.015059-30.840471 27.632941-71.529412 44.483765-116.088471 44.483765l-618.767059 0c-36.442353 0-70.264471-11.384471-98.198588-30.750118C134.324706 678.053647 158.403765 694.874353 189.500235 702.960941zM968.161882 194.032941l-115.501176 0c-61.846588 0-112.173176 50.341647-112.173176 112.188235 0 61.831529 50.326588 112.173176 112.173176 112.173176l115.501176 0L968.161882 194.032941zM968.161882 458.270118l-115.501176 0c-83.832471 0-152.048941-68.201412-152.048941-152.048941 0-83.847529 68.201412-152.064 152.048941-152.064l115.501176 0 0-35.117176c0-74.119529-60.250353-134.384941-134.324706-134.384941l-618.767059 0c-74.059294 0-134.324706 60.265412-134.324706 134.339765l0.783059 367.616 0.045176 0c-0.060235 13.056 0.256 25.449412 0.918588 37.300706 7.695059 66.785882 64.195765 118.814118 132.577882 118.814118l618.767059 0c74.074353 0 134.324706-60.280471 134.324706-134.384941L968.161882 458.270118zM890.036706 303.721412m-29.921882 0a1.987 1.987 0 1 0 59.843765 0 1.987 1.987 0 1 0-59.843765 0Z"  horiz-adv-x="1024" />

    
    <glyph glyph-name="wo" unicode="&#58964;" d="M94.687-12.053l834.59 0c0 0-90.935 169.345-198.185 253.634 55.48 57.965 89.59 136.57 89.59 223.112 0 178.19-144.455 322.667-322.669 322.667-178.19 0-322.667-144.45-322.667-322.667 0-88.857 35.937-169.347 94.037-227.702C144.735 149.742 94.687-12.053 94.687-12.053zM665.808 464.694c0 0 0-157.462-167.795-157.462S330.219 464.694 330.219 464.694L665.808 464.694z"  horiz-adv-x="1024" />

    
    <glyph glyph-name="yuan-copy-copy-copy-copy" unicode="&#58929;" d="M1.629 375.764c-0-278.221 225.543-503.764 503.764-503.764s503.764 225.543 503.764 503.764c0 278.221-225.543 503.764-503.764 503.764-278.221 0-503.764-225.543-503.764-503.764z"  horiz-adv-x="1025" />

    
    <glyph glyph-name="fenxiang1" unicode="&#58970;" d="M834.559417 379.933381c-12.96529 0-23.475667-10.513448-23.475667-23.477714l0-221.939765c0-28.479635-23.170722-51.650357-51.650357-51.650357L264.045745 82.865545c-28.480658 0-51.647287 23.170722-51.647287 51.650357L212.398458 600.556151c0 28.479635 23.166629 51.644217 51.647287 51.644217l161.473625 0c12.96222 0 23.471574 10.514471 23.471574 23.482831 0 12.961196-10.509355 23.474644-23.471574 23.474644L264.045745 699.157843c-54.366212 0-98.600669-44.231387-98.600669-98.600669l0-466.040249c0-54.370305 44.234457-98.600669 98.600669-98.600669l495.387647 0c54.373375 0 98.600669 44.231387 98.600669 98.600669L858.034061 356.454644C858.034061 369.419933 847.527776 379.933381 834.559417 379.933381L834.559417 379.933381 834.559417 379.933381zM341.910137 242.366236c-2.333138-12.755512 6.113231-24.988114 18.865673-27.321252 1.428535-0.264013 2.850931-0.388856 4.254907-0.388856 11.114129 0 20.989033 7.92653 23.065322 19.250436 0.179079 0.986467 18.804275 99.722212 83.633792 197.880813 37.722136 57.121975 83.436294 102.544491 135.867434 135.009903 50.046836 30.989805 106.61111 50.279127 168.731936 57.635675l-76.428693-78.850859c-9.024537-9.31004-8.791224-24.173562 0.51984-33.197076 4.555759-4.417613 10.44591-6.619768 16.331967-6.619768 6.133697 0 12.259208 2.387373 16.85897 7.139607l118.322849 122.075313c0.088004 0.088004 0.165776 0.182149 0.252757 0.277316 0.121773 0.124843 0.240477 0.25378 0.358157 0.384763 0.128937 0.14224 0.25685 0.290619 0.385786 0.438998 0.016373 0.019443 0.033769 0.044002 0.053212 0.060375 0.11461 0.145309 0.233314 0.283456 0.347924 0.425695 0.125867 0.152473 0.252757 0.311085 0.36839 0.469698 0.11461 0.145309 0.223081 0.293689 0.337691 0.442068 0.127913 0.179079 0.25685 0.361227 0.384763 0.540306 0.081864 0.121773 0.165776 0.246617 0.246617 0.36839 0.080841 0.12075 0.165776 0.242524 0.240477 0.36839 0.026606 0.039909 0.053212 0.086981 0.086981 0.135076 0.017396 0.030699 0.036839 0.067538 0.058328 0.101307 0.074701 0.118704 0.145309 0.239454 0.220011 0.358157 0.11768 0.212848 0.239454 0.418532 0.358157 0.62524 0.067538 0.12075 0.127913 0.239454 0.192382 0.358157 0.024559 0.044002 0.048095 0.091074 0.070608 0.135076 0.084934 0.168846 0.176009 0.341784 0.25992 0.509606 0.067538 0.14224 0.135076 0.286526 0.202615 0.428765 0.095167 0.198521 0.182149 0.391926 0.270153 0.594541 0.070608 0.158612 0.130983 0.320295 0.198521 0.48607 0.077771 0.186242 0.148379 0.36839 0.220011 0.550539 0.067538 0.186242 0.1361 0.36839 0.199545 0.553609 0.057305 0.169869 0.11461 0.337691 0.168846 0.503467 0.067538 0.203638 0.128937 0.409322 0.189312 0.610914 0.044002 0.162706 0.086981 0.318248 0.130983 0.479931 0.060375 0.208754 0.11461 0.425695 0.162706 0.641613 0.030699 0.128937 0.064468 0.25685 0.094144 0.388856 0.010233 0.035816 0.014326 0.076748 0.023536 0.110517 0.044002 0.203638 0.084934 0.409322 0.124843 0.615007 0.019443 0.118704 0.044002 0.237407 0.067538 0.355087 0.013303 0.094144 0.026606 0.181125 0.044002 0.276293 0.023536 0.161682 0.044002 0.320295 0.070608 0.481977 0.013303 0.105401 0.029676 0.213871 0.044002 0.318248 0.019443 0.154519 0.036839 0.299829 0.053212 0.455371 0.010233 0.088004 0.017396 0.179079 0.023536 0.264013 0.010233 0.080841 0.017396 0.154519 0.024559 0.236384 0.00307 0.047072 0.007163 0.092098 0.013303 0.135076 0.013303 0.206708 0.027629 0.409322 0.040932 0.615007 0 0.030699 0 0.064468 0.00307 0.095167 0.00307 0.124843 0.010233 0.249687 0.013303 0.37453 0 0 0 0.010233 0.00307 0.014326 0.007163 0.249687 0.010233 0.496304 0.010233 0.750083l0 0.007163 0 0.016373c0 0.388856-0.010233 0.766456-0.027629 1.151219-0.00307 0.033769-0.00307 0.064468-0.00921 0.095167-0.00307 0.074701-0.00307 0.145309-0.007163 0.212848l0 0.016373c-0.017396 0.274246-0.040932 0.538259-0.067538 0.804319-0.010233 0.077771-0.020466 0.158612-0.027629 0.236384l0 0.00307c-0.00614 0.040932-0.00614 0.081864-0.00921 0.121773-0.030699 0.242524-0.061398 0.483001-0.098237 0.726547-0.013303 0.104377-0.026606 0.208754-0.042979 0.314155-0.007163 0.044002-0.014326 0.084934-0.024559 0.128937-0.030699 0.205685-0.070608 0.408299-0.10847 0.610914-0.026606 0.130983-0.053212 0.26606-0.080841 0.398066 0 0.019443-0.00614 0.039909-0.013303 0.057305-0.007163 0.044002-0.017396 0.084934-0.024559 0.124843-0.033769 0.151449-0.070608 0.299829-0.104377 0.449231-0.057305 0.246617-0.12075 0.493234-0.188288 0.73985-0.027629 0.094144-0.054235 0.188288-0.080841 0.280386-0.080841 0.286526-0.168846 0.574075-0.264013 0.857531-0.016373 0.053212-0.036839 0.10847-0.053212 0.161682-0.067538 0.199545-0.128937 0.402159-0.206708 0.604774-0.00614 0.019443-0.016373 0.042979-0.026606 0.067538-0.030699 0.086981-0.067538 0.171915-0.101307 0.25685-0.010233 0.033769-0.023536 0.060375-0.036839 0.091074-0.080841 0.208754-0.161682 0.421602-0.246617 0.62831-0.051165 0.11461-0.10847 0.232291-0.158612 0.347924-0.00307 0.010233-0.007163 0.019443-0.007163 0.019443-0.097214 0.220011-0.188288 0.429789-0.289596 0.638543 0 0-0.007163 0.00921-0.007163 0.013303-0.220011 0.459464-0.459464 0.905626-0.710175 1.351787l0 0.00307c-0.182149 0.317225-0.370437 0.63138-0.563842 0.945535-0.019443 0.030699-0.044002 0.064468-0.060375 0.094144-0.11154 0.176009-0.223081 0.354064-0.341784 0.527003l-0.023536 0.033769c-0.058328 0.084934-0.11461 0.169869-0.179079 0.25992-0.060375 0.088004-0.130983 0.182149-0.199545 0.276293-0.050142 0.068562-0.101307 0.13917-0.148379 0.206708-0.051165 0.067538-0.095167 0.135076-0.145309 0.195451-0.047072 0.067538-0.098237 0.1361-0.152473 0.203638-0.118704 0.161682-0.249687 0.317225-0.375553 0.475837-0.067538 0.080841-0.130983 0.158612-0.198521 0.240477-0.033769 0.050142-0.074701 0.094144-0.10847 0.145309-0.162706 0.182149-0.327458 0.36839-0.490164 0.549515-0.042979 0.051165-0.083911 0.098237-0.130983 0.145309-0.223081 0.25071-0.455371 0.490164-0.692778 0.729617-0.019443 0.020466-0.040932 0.040932-0.063445 0.061398-0.249687 0.252757-0.506537 0.499373-0.77055 0.738827-0.013303 0.010233-0.023536 0.017396-0.030699 0.026606-0.26913 0.242524-0.537236 0.476861-0.816598 0.703011-0.014326 0.013303-0.030699 0.026606-0.044002 0.040932-0.264013 0.215918-0.533143 0.428765-0.807389 0.63138-0.036839 0.026606-0.070608 0.060375-0.110517 0.088004-0.24764 0.182149-0.497327 0.358157-0.754177 0.530073-0.070608 0.053212-0.144286 0.104377-0.218988 0.155543-0.125867 0.083911-0.25071 0.168846-0.381693 0.249687-0.097214 0.067538-0.202615 0.124843-0.303922 0.188288-0.11461 0.070608-0.230244 0.14224-0.344854 0.209778-0.104377 0.060375-0.202615 0.124843-0.303922 0.185218-0.11461 0.061398-0.226151 0.118704-0.337691 0.182149-0.135076 0.074701-0.273223 0.148379-0.409322 0.220011-0.195451 0.10847-0.391926 0.206708-0.590448 0.303922-0.152473 0.077771-0.303922 0.145309-0.456395 0.215918-0.188288 0.086981-0.3776 0.176009-0.563842 0.25378-0.171915 0.077771-0.347924 0.148379-0.520863 0.215918-0.168846 0.070608-0.343831 0.145309-0.51984 0.205685-0.192382 0.077771-0.384763 0.14224-0.584308 0.212848-0.155543 0.058328-0.317225 0.11154-0.472767 0.158612-0.104377 0.036839-0.202615 0.067538-0.306992 0.098237l-172.325787 57.132208c-12.30935 4.082992-25.594935-2.589988-29.671787-14.893198-4.079922-12.310374 2.589988-25.592888 14.894222-29.67281l69.310575-22.978341c-50.945299-11.009751-98.219999-29.928636-141.339052-56.621579-58.253752-36.075637-108.833731-86.22071-150.32982-149.052734C362.493941 351.591893 342.717526 246.777709 341.910137 242.366236L341.910137 242.366236 341.910137 242.366236zM341.910137 242.366236"  horiz-adv-x="1024" />

    
    <glyph glyph-name="iconfont7" unicode="&#58882;" d="M914.817 358.689h-805.635c-13.482 0-24.413 11.066-24.413 24.559s10.931 24.559 24.413 24.559h805.635c13.482 0 24.413-11.066 24.413-24.559s-10.931-24.559-24.413-24.559zM536.441 786.064v-805.635c0-13.482-11.066-24.413-24.559-24.413s-24.559 10.931-24.559 24.413v805.635c0 13.482 11.066 24.413 24.559 24.413s24.559-10.931 24.559-24.413z"  horiz-adv-x="1024" />

    
    <glyph glyph-name="asmkticon0129" unicode="&#59313;" d="M794.88 704 229.12 704C180.48 704 140.8 664.32 140.8 615.68l0-335.36c0-48.64 39.68-88.32 88.32-88.32l37.76 0-12.8-140.16L465.92 192l328.96 0c48.64 0 88.32 39.68 88.32 88.32L883.2 615.68C883.2 664.32 843.52 704 794.88 704zM844.8 280.32c0-27.52-22.4-49.92-49.92-49.92L454.4 230.4l-154.88-102.4 9.6 102.4L229.12 230.4c-27.52 0-49.92 22.4-49.92 49.92L179.2 615.68c0 27.52 22.4 49.92 49.92 49.92l565.76 0c27.52 0 49.92-22.4 49.92-49.92L844.8 280.32zM337.92 446.08m-51.2 0a8 8 0 1 0 102.4 0 8 8 0 1 0-102.4 0ZM514.56 446.08m-51.2 0a8 8 0 1 0 102.4 0 8 8 0 1 0-102.4 0ZM691.2 446.08m-51.2 0a8 8 0 1 0 102.4 0 8 8 0 1 0-102.4 0Z"  horiz-adv-x="1024" />

    
    <glyph glyph-name="huangguanlingxing" unicode="&#58945;" d="M910.097834 448.058968 740.572836 315.948091 525.267165 657.106098l42.049698 42.049698-56.169277 56.169277-56.169277-56.169277 41.335431-41.335431L287.924595 312.443267l-174.023452 135.615701 0-435.384042 13.402241 0 386.643967 0.001023 396.148435-0.001023L910.095787 448.058968zM511.148609 717.416695l18.260899-18.260899-18.260899-18.260899-18.260899 18.260899L511.148609 717.416695zM510.414899 629.546416 719.27067 299.348018l-207.27067-161.525813L309.175595 295.88208 510.414899 629.546416zM140.706649 397.628392l352.33865-274.576589L378.216018 33.564699l-237.508345 0L140.707672 397.628392zM512 33.564699l-95.875604 0 95.875604 74.715679 95.875604-74.715679L512 33.564699zM883.292328 33.564699l-237.510392 0-114.829282 89.48608 352.339674 274.576589L883.292328 33.564699z"  horiz-adv-x="1024" />

    
    <glyph glyph-name="shezhi" unicode="&#59055;" d="M515.3375 553.375c-92.8125 0-168-75.1875-168-168.025 0-92.775 75.1875-168.025 168-168.025 92.8375 0 168.025 75.25 168.025 168.025C683.375 478.1875 608.1875 553.375 515.3375 553.375zM515.3375 273.3125c-61.8375 0-112.025 50.15-112.025 112.025s50.1875 112.025 112.025 112.025c61.9 0 112.025-50.15 112.025-112.025S577.25 273.3125 515.3375 273.3125zM918.75 504.875c-16.25 3.375-33.625 6.5625-52.125 9.525-3.5 9.5-7.375 18.8125-11.5625 27.9625 11.125 15.4 21.25 30.0875 30.25 44 14.375 22.125 11.25 51.375-7.5 70.025l-91.375 91.5c-10.8125 10.775-25.125 16.4-39.625 16.4-10.5 0-21.1875-2.9625-30.4375-9.025-13.875-8.9625-28.5625-19.0875-44-30.2125-9.125 4.2125-18.4375 8.0625-27.875 11.5-3.0625 18.8125-6.25 36.3125-9.75 52.4625-5.4375 25.8375-28.3125 44.375-54.75 44.375L450.65 833.3875c-26.4 0-49.25-18.525-54.75-44.375-3.4375-16.15-6.725-33.65-9.75-52.4625-9.4375-3.4375-18.6875-7.275-27.8125-11.5-15.4375 11.125-30.125 21.25-44 30.2125-9.3375 6.0625-19.9375 9.025-30.4375 9.025-14.5 0-28.8375-5.625-39.5875-16.4l-91.525-91.5c-18.65-18.65-21.75-47.9-7.375-70.025 9-13.9 19.0875-28.5875 30.2125-44-4.1875-9.125-8.0625-18.375-11.5-27.8375-18.775-3.0375-36.3125-6.2875-52.4625-9.7125-25.8375-5.5-44.3375-28.375-44.3375-54.775l0-129.3375c0-26.4375 18.5-49.25 44.3375-54.75 16.15-3.4375 33.6875-6.6875 52.4625-9.75 3.4375-9.4375 7.3125-18.75 11.5-27.875-11.125-15.4375-21.2125-30.125-30.2125-43.9375-14.375-22.125-11.275-51.4375 7.375-70.0625l91.525-91.4375c10.75-10.875 25.125-16.4375 39.5875-16.4375 10.5 0 21.0875 2.9375 30.4375 8.9375 13.875 9 28.5625 19.125 44 30.25 9.125-4.1875 18.375-8 27.8125-11.5 3.025-18.75 6.3125-36.3125 9.75-52.4375 5.5-25.9375 28.3375-44.375 54.75-44.375L580-62.675c26.4375 0 49.3125 18.4375 54.75 44.375 3.5 16.125 6.6875 33.6875 9.75 52.4375 9.4375 3.5 18.875 7.375 28 11.5625 15.1875-10.9375 29.75-21.0625 43.625-30.125 9.375-6.1875 20.0625-9.125 30.6875-9.125 14.5 0 28.8125 5.5625 39.625 16.4375l91.375 91.4375c18.8125 18.6875 21.875 48.125 7.375 70.25-9.125 13.9375-19.25 28.5-30.1875 43.625 4.25 9.1875 8.125 18.5625 11.625 28.125 18.5 3 35.875 6.1875 52.125 9.5625 26.0625 5.4375 44.625 28.3125 44.625 54.8125L963.375 450.0375C963.375 476.5625 944.8125 499.475 918.75 504.875zM907.375 320.6875c-25.375-5.3125-53.5-10-83.75-14.25-7.5625-29.6875-19.25-57.625-34.5-83.3125 18.4375-24.375 34.9375-47.625 49.125-69.25l-91.4375-91.4375c-21.625 14.1875-44.875 30.6875-69.25 49.125-25.625-15.1875-53.5625-26.875-83.1875-34.4375-4.3125-30.5625-9-58.75-14.375-83.75L450.65-6.625c-5.3125 25-10.125 53.1875-14.3125 83.75-29.5875 7.5625-57.5 19.1875-83.125 34.375-24.5875-18.5625-47.875-35.1875-69.3125-49.0625L192.375 153.875c13.9375 21.5 30.5 44.8125 49.15 69.375-15.2125 25.625-26.875 53.5-34.4 83.0625-30.5875 4.3125-58.775 9.0625-83.8125 14.375L123.3125 450.0375c25.025 5.3375 53.2125 10.125 83.8125 14.3375 7.525 29.5875 19.1875 57.4625 34.4 83.0875-18.65 24.625-35.2125 47.875-49.15 69.3375l91.525 91.5c21.4375-13.9375 44.7125-30.4625 69.3125-49.125 25.625 15.2125 53.525 26.875 83.125 34.4 4.1875 30.5625 9 58.775 14.3125 83.8125L580 777.3875c5.375-25.025 10.0625-53.25 14.375-83.8125 29.625-7.525 57.4375-19.1875 83.0625-34.4 24.625 18.65 47.9375 35.1875 69.375 49.125l91.4375-91.5c-13.875-21.4625-30.4375-44.7125-49.0625-69.3375 15.25-25.65 26.875-53.5875 34.4375-83.2125 30.25-4.1875 58.375-8.9375 83.75-14.2125L907.375 320.6875z"  horiz-adv-x="1024" />

    
    <glyph glyph-name="fukuan" unicode="&#58928;" d="M889.72288 374.46144a402.15552 402.15552 0 0 0 33.11104 1.3568c19.69664 0 33.60256-1.3568 33.72544-1.3568l67.14368-6.52288-28.4928 61.05088-173.06112 370.06336-9.78432 20.98688-23.20384 1.11104s-8.9856 0.49152-22.83008 0.49152c-44.6208 0-105.42592-4.30592-141.85984-24.49408-15.32416-8.49408-44.49792-27.93984-81.42336-52.43904-69.72928-46.40256-175.15008-116.56192-226.91328-137.856-77.9776-32.12288-214.05184-65.11104-215.40352-65.4848l-45.97248-11.07456 20.18816-42.71104 43.01824-90.83904c-40.3712-11.19744-71.1424-18.70848-71.7568-18.83136l-45.91104-11.07968L20.48 324.11648l168.20224-355.59936 9.9072-21.04832 23.38816-0.98304s4.67456-0.12288 12.86144-0.12288c39.69536 0 140.25728 4.06528 217.25184 42.58816 50.09408 25.10848 125.85472 77.91616 192.62976 124.4416 52.00384 36.31104 101.11488 70.528 124.50304 82.22208 21.53984 10.83392 56.74496 16.73728 99.08736 16.73728 19.69664 0 33.60256-1.3568 33.72544-1.3568l67.20512-6.58432-28.55424 61.11232-50.96448 108.93824zM109.7216 504.06912s139.33568 33.60256 221.06624 67.20512c81.73056 33.72544 269.12768 168.25856 312.3968 192.26112 3.44576 1.9712 7.38816 3.56864 11.5712 5.16608 1.10592 0.43008 2.21184 0.86016 3.32288 1.23392 3.56864 1.2288 7.3216 2.40128 11.264 3.44576 0.79872 0.12288 1.54112 0.36864 2.2784 0.6144a251.33568 251.33568 0 0 0 14.52544 3.07712c1.2288 0.24576 2.46272 0.36864 3.69152 0.6144 4.06016 0.6144 8.18688 1.23392 12.30848 1.78176 1.23392 0.18432 2.40128 0.3072 3.56864 0.43008 5.10976 0.6144 10.15808 1.10592 15.13984 1.47968 0.98304 0.12288 1.84832 0.12288 2.83136 0.24576 4.18304 0.3072 8.24832 0.55296 12.24704 0.7424 1.29536 0.12288 2.64704 0.12288 3.93728 0.24576 4.49536 0.12288 8.92416 0.3072 12.98432 0.36864 0.24576 0 0.43008 0.06144 0.67584 0.06144 4.12672 0.06144 7.87968 0.06144 11.38688 0.06144h11.68896c1.2288-0.06144 2.33984-0.06144 3.32288-0.12288h2.46272c0.98304-0.06144 1.60256-0.12288 2.33984-0.12288h1.41312c0.79872-0.06144 1.16736-0.12288 1.16736-0.12288l173.06112-370.00192s-0.43008 0-0.86528 0.06144c-0.18432 0.06144-0.36864 0.06144-0.73728 0.06144a17.00864 17.00864 0 0 1-2.02752 0.12288c-0.43008 0.12288-0.7424 0.12288-1.16736 0.12288-0.98304 0.12288-2.15552 0.12288-3.38432 0.24576-0.55296 0-0.9216 0-1.47456 0.12288-3.75808 0.18432-8.3712 0.36864-13.72672 0.6144h-2.09408a222.5408 222.5408 0 0 1-6.52288 0.12288h-2.83136c-0.9216 0-1.78688 0.06144-2.70848 0.06144-0.79872 0-1.72032-0.06144-2.52416-0.06144-2.46272 0-4.98688 0-7.57248-0.12288-1.664 0-3.32288 0-5.04832-0.12288-2.70848-0.06144-5.53984-0.18432-8.43264-0.36864-1.664-0.06144-3.26144-0.12288-4.85888-0.24576-4.18816-0.24576-8.3712-0.6144-12.67712-0.98304-0.67584-0.12288-1.41312-0.12288-2.1504-0.24576-2.2784-0.24576-4.74112-0.55296-7.08096-0.86016-1.9712-0.24576-3.93728-0.43008-5.96992-0.7424l-4.864-0.73728c-3.13856-0.49152-6.27712-1.0496-9.41568-1.72544-1.84832-0.3072-3.63008-0.73728-5.4784-1.10592a203.9808 203.9808 0 0 1-8.80128-2.09408c-1.41824-0.36864-2.8928-0.73728-4.37248-1.10592-0.3072-0.12288-0.6144-0.24576-0.98304-0.36864a139.4176 139.4176 0 0 1-8.9856-2.8928c-1.47456-0.55296-3.01568-1.04448-4.49536-1.536-4.36736-1.664-8.55552-3.44576-12.61568-5.41696-57.60512-28.86656-230.66624-163.46112-317.1328-206.66368-4.98176-2.52416-10.15296-4.80256-15.32416-7.0144-1.72544-0.67584-3.44576-1.3568-5.1712-1.9712-3.56864-1.47456-7.19872-2.83136-10.83392-4.18304-2.02752-0.67584-4.06016-1.35168-6.03136-1.9712-3.56864-1.2288-7.13728-2.33984-10.71104-3.32288-1.9712-0.61952-3.87584-1.23392-5.84704-1.72544-3.99872-1.16736-8.064-2.21184-12.12416-3.2-1.47456-0.36864-2.95424-0.73728-4.37248-1.11104-5.35552-1.2288-10.77248-2.40128-16.18432-3.44576-1.60256-0.3072-3.2-0.6144-4.864-0.86016-3.8144-0.73728-7.57248-1.3568-11.32544-1.9712-2.15552-0.36864-4.18816-0.7424-6.27712-0.98304-3.26144-0.49152-6.46144-0.98304-9.53856-1.3568-2.15552-0.36864-4.24448-0.6144-6.33856-0.86016-3.13856-0.36864-6.21568-0.73728-9.16992-1.0496-1.9712-0.18432-3.87584-0.43008-5.72416-0.55296-3.63008-0.36864-7.07584-0.67584-10.52672-0.98304-2.33472-0.12288-4.67456-0.36864-6.95296-0.49152-2.8928-0.24576-5.84704-0.36864-8.55552-0.55296-2.03264-0.12288-3.93728-0.18432-5.90848-0.3072-1.90976-0.12288-3.8144-0.18432-5.66272-0.24576l-5.53984-0.18432c-1.536-0.06144-3.01568-0.06144-4.43392-0.12288-1.84832-0.06144-3.56864-0.06144-5.16608-0.06144-0.9216-0.06144-1.72544-0.06144-2.5856-0.06144-5.7856-0.06144-10.2144 0-12.92288 0.06144h-2.58048c-0.3072 0-0.79872 0.06144-0.79872 0.06144l-105.856 223.83616-16.68096 35.2-45.6448 96.62976z m795.33056-254.78656c-0.18432 0.06144-0.43008 0.06144-0.7424 0.12288-0.55296 0-1.2288 0.12288-2.02752 0.12288-0.43008 0-0.79872 0.06144-1.2288 0.12288-0.98304 0.06144-2.09408 0.12288-3.32288 0.24576-0.55296 0-0.98304 0-1.536 0.06144-3.69152 0.18432-8.30976 0.43008-13.72672 0.6144-0.67584 0.06144-1.35168 0.06144-2.09408 0.06144-2.09408 0-4.24448 0.06144-6.52288 0.12288H865.78688c-2.40128 0-4.98688-0.12288-7.57248-0.12288-1.60256 0-3.32288-0.06144-4.98176-0.12288l-8.43264-0.36864c-1.65888-0.12288-3.26144-0.12288-4.92032-0.24576-4.12672-0.24576-8.3712-0.6144-12.61568-0.98304a25.9584 25.9584 0 0 0-2.15552-0.24576c-4.31104-0.49152-8.73984-0.98304-13.04576-1.60256-1.60256-0.24576-3.26144-0.49152-4.864-0.79872-3.13856-0.49152-6.33856-1.04448-9.41568-1.664l-5.53984-1.10592a209.3056 209.3056 0 0 1-8.73984-2.1504c-1.8432-0.43008-3.63008-0.9216-5.41696-1.41312-3.07712-0.9216-6.03136-1.84832-8.9856-2.95424l-4.4288-1.47456c-4.36736-1.72544-8.61696-3.44576-12.61568-5.4784-57.66656-28.86656-230.66624-163.39968-317.1328-206.66368-5.04832-2.52416-10.2144-4.736-15.3856-6.95296-1.72032-0.7424-3.44576-1.3568-5.16608-2.09408-3.57376-1.35168-7.1424-2.70848-10.83392-4.06016a552.40704 552.40704 0 0 0-16.67584-5.41184c-1.9712-0.49152-3.87584-1.10592-5.84704-1.664-4.06016-1.16736-8.12544-2.15552-12.1856-3.13856a431.0016 431.0016 0 0 1-4.30592-1.10592c-5.41696-1.2288-10.8288-2.46272-16.18432-3.44576-1.664-0.36864-3.26144-0.6144-4.864-0.86016-3.8144-0.73728-7.6288-1.47968-11.32544-2.03264-2.1504-0.36864-4.18304-0.67584-6.27712-0.98304-3.26144-0.49152-6.46144-0.9216-9.6-1.41824l-6.27712-0.73728c-3.13856-0.36864-6.21568-0.7424-9.23136-1.10592-1.90976-0.12288-3.8144-0.36864-5.66272-0.55296-3.63008-0.3072-7.13728-0.67584-10.58304-0.9216a304.896 304.896 0 0 0-6.89152-0.49152c-2.95424-0.24576-5.84704-0.43008-8.55552-0.6144-2.03264-0.12288-3.99872-0.18432-5.90848-0.24576-1.90976-0.12288-3.88096-0.24576-5.66272-0.24576-1.9712-0.12288-3.75296-0.12288-5.60128-0.24576-1.47456 0-2.95424-0.06144-4.36736-0.12288-1.84832 0-3.63008 0-5.23264-0.06144-0.86016-0.06144-1.72544-0.06144-2.52416-0.06144-5.84704 0-10.2144 0-12.92288 0.12288h-3.38432L55.1936 340.55168s34.5856 8.30976 79.45216 20.864l108.50304-229.43744 9.96864-21.04832 23.32672-0.9216s4.67456-0.18432 12.86144-0.18432c39.69536 0 140.25728 4.18304 217.25184 42.6496 50.15552 25.04704 125.85472 77.8496 192.62976 124.38016 52.06528 36.31104 101.17632 70.528 124.56448 82.22208 7.26016 3.69152 16.24576 6.76864 26.46528 9.23136l55.63392-119.02464h-0.79872zM205.8496 388.74112c0.98304 0 2.09408 0 3.13856 0.24576 2.46272 0.36864 16.4352 2.83136 37.72416 7.50592 83.0208 18.46272 279.3472 73.05216 354.86208 188.32384 4.31104 6.52288 3.99872 14.7712 0 20.92544v0.12288a19.8144 19.8144 0 0 1-5.53984 5.53984c-8.86272 5.7856-20.80256 3.32288-26.58816-5.53984-9.53856-14.52544-21.53984-27.93984-35.20512-40.49408-26.40384-24.24832-59.26912-44.86656-94.03904-62.1568-74.8288-37.23776-157.97248-59.20768-203.33056-69.36576-20.67968-4.61312-33.60256-6.83008-34.22208-6.95296-5.66272-0.98304-10.2144-4.43392-13.04576-8.9856-2.33984-3.8144-3.56864-8.3712-2.70848-13.16864 1.54112-9.35424 9.72288-16 18.95424-16zM241.11616 369.16736a19.18976 19.18976 0 0 1-15.81568-22.0928 19.2512 19.2512 0 0 1 18.95424-16.06144c1.04448 0 2.09408 0.12288 3.2 0.24576 12.06272 2.09408 297.74848 51.14368 392.5248 195.89632a19.2 19.2 0 0 1-5.53984 26.6496 19.28704 19.28704 0 0 1-26.58816-5.53984c-85.6064-130.72384-363.96544-178.60608-366.73536-179.0976zM458.8544 336.9216c-49.0496-35.57376-174.22848-63.75936-175.4624-64.00512a19.23584 19.23584 0 0 1-14.6432-22.89664 19.29728 19.29728 0 0 1 18.76992-15.13984c1.41824 0 2.76992 0.18432 4.18816 0.49152 5.4784 1.2288 134.28736 30.1568 189.73696 70.528 8.61696 6.21568 10.46016 18.21696 4.24448 26.8288a19.12832 19.12832 0 0 1-26.83392 4.19328zM641.20832 579.64544c35.75808-55.08096 96.99328-2.21696 122.04544-25.41568 1.04448-1.0496 2.21696-1.90976 3.13856-3.26144l1.9712-3.07712c3.5072-5.53984 5.28896-11.01312 5.53984-16.36864 0.43008-10.64448-5.66272-20.80256-19.5072-29.48096-20.67968-13.04576-42.89536-11.8784-54.528 6.64576l-1.0496 1.664-14.52544-9.78432 21.35552-33.90976c16.3072 5.23264 37.96992 12.8 52.864 22.15424a147.61984 147.61984 0 0 1 25.728 20.49536c11.56608 11.63264 20.5568 24.92416 24.49408 38.46144 3.69152 12.92288 2.83136 26.21952-4.92544 38.528-6.64576 10.46528-14.40256 16.86528-22.77376 20.67968-13.66016 6.27712-29.04576 5.41696-43.8784 3.07712-26.15808-4.1216-50.52928-12.92288-60.86656 3.5072a54.81472 54.81472 0 0 0-2.64704 4.864c-6.0928 13.16864-2.8928 25.66144 12.61568 35.45088a57.82016 57.82016 0 0 0 7.7568 4.06016c10.46016 4.4288 20.43392 4.24448 28.8 0.12288 5.1712-2.5856 9.72288-6.52288 13.35808-12.06272l12.12416 11.07456 0.79872 0.7424-20.18816 32.00512c-13.8496-6.4-33.90976-16.98816-46.95552-25.23648-3.69152-2.33472-7.38816-4.92032-10.95168-7.75168-14.27968-11.44832-27.01824-26.58816-32.49664-42.09664 0 0 0-0.06144-0.06144-0.12288-4.18304-11.81696-4.18304-23.87968 2.5856-34.7136l0.1792-0.25088z"  horiz-adv-x="1024" />

    
    <glyph glyph-name="duigou" unicode="&#58899;" d="M548.20202 779.636364C356.331313 779.636364 200.921212 624.09697 200.921212 432.355556 200.921212 240.484848 356.331313 84.945455 548.20202 84.945455c191.870707 0 347.280808 155.539394 347.280808 347.280808C895.482828 624.09697 740.072727 779.636364 548.20202 779.636364L548.20202 779.636364zM732.444444 481.745455 527.773737 277.074747c-11.248485-11.248485-29.608081-11.248485-40.985859 0l-122.828283 122.828283c-11.248485 11.248485-11.248485 29.608081 0 40.985859 11.248485 11.248485 29.608081 11.248485 40.985859 0l102.270707-102.270707 184.242424 184.242424c11.248485 11.248485 29.608081 11.248485 40.985859 0C743.692929 511.353535 743.692929 492.993939 732.444444 481.745455L732.444444 481.745455z"  horiz-adv-x="1024" />

    
    <glyph glyph-name="icon1" unicode="&#58898;" d="M560.097438 384L887.887996 711.791581c13.778818 13.767562 13.778818 36.111452 0 49.877991-13.778818 13.778818-36.100196 13.778818-49.877991 0L510.218424 433.877991 182.426843 761.669572c-13.778818 13.778818-36.100196 13.778818-49.877991 0-13.778818-13.767562-13.778818-36.111452 0-49.877991l327.791581-327.791581-327.791581-327.791581c-13.778818-13.767562-13.778818-36.111452 0-49.877991 6.888897-6.888897 15.914458-10.334369 24.938995-10.334369s18.050098 3.444449 24.938996 10.334369l327.791581 327.791581L838.010005 6.330428c6.888897-6.888897 15.914458-10.334369 24.938996-10.334369s18.050098 3.444449 24.938995 10.334369c13.778818 13.766538 13.778818 36.111452 0 49.877991L560.097438 384z"  horiz-adv-x="1024" />

    
    <glyph glyph-name="yijia" unicode="&#58880;" d="M1422.144-123.751l-0.816 0.008h-1237.384c-59.898 0-106.437 16.198-138.315 48.145-41.023 41.091-41.38 93.035-41.38 95.219 0 132.128 194.066 209.908 210.324 216.188l523.405 245.746-141.613 87.094c-2.838 1.76-5.162 4.089-6.865 6.843-37.031 31.707-58.524 73.325-59.994 119.064-2.55 79.547 57.468 141.103 60.026 143.686 0.399 0.399 0.807 0.79 1.241 1.156 78.043 67.148 151.004 57.536 198.469 37.649 50.023-20.966 81.612-57.272 82.938-58.811 2.934-3.613 4.71-8.269 4.71-13.341 0-11.734-9.512-21.247-21.247-21.247-6.176 0-11.736 2.635-15.618 6.842-4.22 4.85-104.019 116.973-220.799 17.369-5.116-5.456-49.267-54.34-47.269-112.216 1.139-33.034 17.38-63.918 48.281-91.828l173.474-106.7c6.115-3.796 10.125-10.474 10.125-18.089 0-8.454-4.943-15.753-12.096-19.165l-559.822-262.824c-2.192-1.047-4.739-1.78-7.42-2.061 4.088 0.736-177.782-69.65-177.782-175.399 0-0.178 0.484-26.082 17.295-51.009 22.317-33.094 62.669-49.853 119.933-49.853l1237.979-0.008c0.416 0 48.383-0.348 76.012 27.111 13.564 13.504 20.065 31.47 19.878 54.969-0.017 1.351-0.059 1.742 0.161 2.932 0.178 4.649 0.042 69.714-133.055 142.998l-404.271 216.154-213.452-105.774c-2.748-1.392-5.991-2.207-9.425-2.207-11.723 0-21.227 9.504-21.227 21.227 0 8.29 4.752 15.47 11.68 18.964l223.347 110.691c2.749 1.395 5.994 2.212 9.43 2.212 3.664 0 7.111-0.929 10.118-2.565l413.933-221.317c0.085-0.034 0.153-0.076 0.221-0.119 68.066-37.453 114.732-78.748 138.689-122.72 16.904-31.020 16.853-54.009 16.309-61.207 0.051-34.657-10.929-63.111-32.652-84.57-38.176-37.742-96.536-39.238-105.477-39.238z"  horiz-adv-x="1564" />

    
    <glyph glyph-name="huoyanhuodongtuijian" unicode="&#59016;" d="M828.8 673.6C688 633.6 662.4 520 672 448c-100.8 118.4-96 252.8-96 448C254.4 774.4 329.6 425.6 320 320c-80 65.6-96 224-96 224-84.8-43.2-128-161.6-128-256 0-230.4 185.6-416 416-416 230.4 0 416 185.6 416 416C928 424 827.2 488 828.8 673.6z"  horiz-adv-x="1024" />

    
    <glyph glyph-name="dianpu" unicode="&#58920;" d="M848.85 430.715c-46.056 0-86.84 22.762-111.512 57.499-24.673-34.735-65.456-57.499-111.464-57.499s-86.791 22.738-111.464 57.499c-24.673-34.76-65.456-57.499-111.464-57.499-46.056 0-86.84 22.762-111.512 57.499-24.673-34.735-65.456-57.499-111.464-57.499-75.131 0-136.234 60.595-136.234 135.098l1.598 8.757 82.438 217.994h770.14l87.080-226.702c0.049-35.873-13.933-69.642-39.332-95.113-25.787-25.811-60.184-40.034-96.807-40.034zM762.107 565.814c0-47.17 38.896-85.558 86.743-85.558 23.416 0 45.331 9.047 61.731 25.496 15.047 15.047 23.706 34.662 24.77 55.636l-71.214 181.638h-702.12l-68.649-181.469c2.274-45.21 40.25-81.299 86.598-81.299 47.799 0 86.695 38.389 86.695 85.558h49.54c0-47.17 38.896-85.558 86.743-85.558 47.799 0 86.695 38.389 86.695 85.558h49.54c0-47.17 38.896-85.558 86.695-85.558s86.695 38.389 86.695 85.558h49.538zM149.568 67.803c0-53.987 44.394-98.718 99.153-98.718h531.277c54.615 0 99.476 44.198 99.87 98.718l1.927 266.075h-49.541l-1.933-265.712c-0.193-27.311-22.786-49.54-50.313-49.54h-531.295c-27.333 0-49.589 22.060-49.589 49.177v266.078h-49.557v-266.077z"  horiz-adv-x="1024" />

    
    <glyph glyph-name="huiyuan" unicode="&#58895;" d="M768.0256 810.688H256.0256a32 32 0 0 0 0 64h512a32 32 0 0 0 0-64zM517.4016-106.752a31.68 31.68 0 0 0-24.96 11.968L7.1296 508.672a32 32 0 0 0 49.856 40.128l485.312-603.456a32 32 0 0 0-24.896-52.096zM517.3376-106.752a32 32 0 0 0-25.152 51.776l474.688 603.456a32 32 0 0 0 50.24-39.552l-474.624-603.52a31.808 31.808 0 0 0-25.152-12.16zM32.0256 496.704a32.064 32.064 0 0 0-26.048 50.624l224 313.984a32.064 32.064 0 0 0 52.16-37.184l-224-313.984a32 32 0 0 0-26.112-13.44zM992.0256 496.704a32 32 0 0 0-26.048 13.376l-224 313.984a32.064 32.064 0 0 0 52.096 37.184l224-313.984a32.064 32.064 0 0 0-26.048-50.56zM517.4016 169.344a31.872 31.872 0 0 0-25.024 12.032L231.0656 508.736a32 32 0 0 0 49.984 39.936l261.312-327.36a32 32 0 0 0-24.96-51.968zM517.3376 169.344a32 32 0 0 0-25.344 51.456l250.624 327.36a32 32 0 0 0 50.88-38.912l-250.688-327.296a32 32 0 0 0-25.472-12.608z"  horiz-adv-x="1024" />

    
    <glyph glyph-name="lianyiqun" unicode="&#58885;" d="M855.419-40.78c-53.631-4.437-109.583 24.591-166.503 21.158-56.917-3.428-79.196-62.153-145.691-63.46-66.497-1.318-170.569 19.661-187.321 42.303-3.056 7.063-8.765 46.385 41.627 21.158 0.831 0.736 54.958-23.292 124.881-21.158 69.925 2.137 85.182 50.213 145.685 63.457 60.513 13.261 114.159-25.135 166.508-21.139 34.715 2.65 55.792 36.41 62.441 42.299-9.895 142.358-146.106 259.67-166.503 275.019-13.921 10.461-66.928 36.774-99.241 92.393-27.951-14.526-86.477-29.242-129.706-28.915-41.533 0.314-90.361 13.596-120.688 27.354-15.578-32.458-43.191-54.996-87.442-90.829-46.623-37.748-164.739-167.198-167.008-272.816 1.695-9.332 20.67-34.737 62.94-23.361 28.428-7.311 23.258-38.551 0-42.299-60.485-9.711-104.068 23.738-104.068 42.299 0 162.259 127.716 277.911 166.512 317.34 38.788 39.417 104.062 69.724 104.062 148.075 0 63.635-83.252 231.786-83.252 317.337 0 0.499 145.691 42.306 145.691 42.306 21.589-39.031 42.391-84.603 83.252-84.603s62.3 43.279 88.19 84.603c0 0 140.755-41.084 140.755-42.306 0-103.648-83.255-256.8-83.255-317.337 0-73.545 80.953-112.589 124.881-148.075 43.923-35.479 166.503-149.189 166.503-317.34 0.067-21.115-44.179-60.244-83.249-63.459v0zM688.915 784.269c0.48 2.625-76.986 19.502-83.257 21.158-20.729-43.697-43.198-84.615-104.062-84.615-63.231 0-84.947 44.986-104.062 84.615-3.119 4.165-82.769-20.324-83.257-21.158-0.496-43.446 83.257-253.035 83.257-275.019 0-24.669-1.524-44.663-4.721-61.793 1.621-0.629 2.967-0.846 4.721-1.66 24.282-11.498 49.717-19.591 104.062-21.162 54.348-1.58 93.718 15.53 104.062 21.162 3.142 1.692 6.147 2.747 9.029 3.34-5.578 17.815-9.013 37.697-9.029 60.112-0.006 21.252 83.257 229.866 83.257 275.020v0z"  horiz-adv-x="1024" />

    
    <glyph glyph-name="huoyan" unicode="&#59899;" d="M544 64c-134.4064 262.4064 166.4064 198.4064 192 448 25.5936 236.8128-256 320-256 320 108.8128-185.5936-115.1872-204.8128-166.4064-345.5936C198.4064 185.5936 544 64 544 64z m-384-64v-64h704v64H160z"  horiz-adv-x="1024" />

    
    <glyph glyph-name="huo" unicode="&#58958;" d="M338.944-31.744c-55.296 117.248-26.112 184.832 17.408 246.272 46.592 70.144 58.368 137.728 58.368 137.728s37.888-47.104 23.552-122.88c63.488 73.216 75.264 190.464 66.56 234.496 145.408-102.4 209.92-328.192 125.44-492.544 448.512 258.048 110.592 642.048 52.224 683.008 20.48-44.032 23.552-117.248-17.408-152.576-67.072 258.048-232.96 307.712-232.96 307.712 20.48-132.096-70.144-275.456-157.184-384-3.072 52.736-5.632 88.064-34.816 140.8-6.144-96.768-78.848-172.544-99.328-269.312-26.112-132.096 20.48-225.792 198.144-328.704z"  horiz-adv-x="1024" />

    
    <glyph glyph-name="daipingjia" unicode="&#58908;" d="M841.4 736.9H182.6c-65.1 0-118-52.9-118-118v-380.1c0-65.1 52.9-118 118-118h194.8c8.5 0 16.7-3 23.1-8.5l83.8-71.3c7.8-6.7 17.6-10 27.3-10 10 0 20.1 3.5 28 10.6l79 70.2c6.5 5.8 14.9 9 23.6 9h199c65.1 0 118 52.9 118 118V619c0.1 65-52.8 117.9-117.8 117.9z m79-498c0-43.6-35.5-79.1-79.1-79.1h-199c-18.3 0-35.9-6.7-49.5-18.8l-79-70.2c-1.2-1.1-3.1-1.1-4.3 0L425.8 142c-13.4 11.5-30.6 17.8-48.3 17.8H182.6c-43.6 0-79.1 35.5-79.1 79.1V619c0 43.6 35.5 79.1 79.1 79.1h658.7c43.6 0 79.1-35.5 79.1-79.1v-380.1zM638.4 393.2H385.6c-10.8 0-19.4-8.7-19.4-19.4s8.7-19.4 19.4-19.4h252.8c10.8 0 19.4 8.7 19.4 19.4 0.1 10.7-8.6 19.4-19.4 19.4zM638.4 529.3H385.6c-10.8 0-19.4-8.7-19.4-19.4s8.7-19.4 19.4-19.4h252.8c10.8 0 19.4 8.7 19.4 19.4 0.1 10.7-8.6 19.4-19.4 19.4z"  horiz-adv-x="1024" />

    
    <glyph glyph-name="youhuiquan" unicode="&#58974;" d="M969.956 466.489c8.533 0 14.222 2.844 17.067 5.689 2.844 2.844 5.689 8.533 5.689 14.222v170.667c0 25.6-22.756 48.356-48.356 48.356h-867.556c-25.6 0-48.356-19.911-48.356-48.356v-546.133c0-25.6 22.756-48.356 48.356-48.356h870.4c25.6 0 48.356 22.756 48.356 48.356v170.667c0 5.689-2.844 11.378-5.689 14.222-2.844 2.844-8.533 5.689-14.222 5.689h-2.844c-45.511 0-82.489 36.978-82.489 82.489-2.844 45.511 34.133 82.489 79.644 82.489zM955.733 261.689v-150.756c0-5.689-2.844-8.533-8.533-8.533h-870.4c-5.689 0-8.533 2.844-8.533 8.533v546.133c0 5.689 2.844 8.533 8.533 8.533h870.4c5.689 0 8.533-2.844 8.533-8.533v-150.756c-59.733-8.533-108.089-59.733-108.089-122.311s48.356-113.778 108.089-122.311zM500.622 395.378h19.911v-25.6h-19.911v25.6zM500.622 409.6h19.911v-54.044h-19.911v54.044zM500.622 409.6h19.911v-54.044h-19.911v54.044zM500.622 409.6h19.911v-54.044h-19.911v54.044zM500.622 409.6h19.911v-54.044h-19.911v54.044zM500.622 395.378h19.911v-25.6h-19.911v25.6zM500.622 395.378h19.911v-25.6h-19.911v25.6zM500.622 409.6h19.911v-51.2h-19.911v51.2zM500.622 409.6h19.911v-51.2h-19.911v51.2zM500.622 409.6h19.911v-51.2h-19.911v51.2zM500.622 409.6h19.911v-51.2h-19.911v51.2zM500.622 395.378h19.911v-25.6h-19.911v25.6zM594.489 548.978s-79.644-128-82.489-136.533c-8.533 19.911-42.667 65.422-82.489 136.533h-45.511l85.333-145.067h-71.111v-31.289h91.022v-39.822h-91.022v-31.289h91.022v-82.489h39.822v82.489h88.178v31.289h-88.178v39.822h88.178v31.289h-71.111l88.178 145.067h-39.822z"  horiz-adv-x="1024" />

    
    <glyph glyph-name="duigou1" unicode="&#58950;" d="M704.865046 605.824837c-15.296418 8.831163-34.881255 3.584-43.712419-11.712419L456.511582 239.649464l-114.495582 105.599163c-12.095582 12.895373-32.319582 13.566327-45.216627 1.472419-12.895373-12.095582-13.568-32.319582-1.470746-45.248419l146.303164-134.94379c12.095582-12.895373 32.319582-13.566327 45.214954-1.472419 3.903582 3.649255 229.759163 397.024209 229.759163 397.024209 8.802719 15.326536 3.553882 34.911373-11.740862 43.74421zM512 896C229.215373 896 0 666.784627 0 384s229.215373-512 512-512 512 229.215373 512 512S794.784627 896 512 896z m0-960C264.575163-64 64 136.575163 64 384S264.575163 832 512 832 960 631.424837 960 384 759.424837-64 512-64z"  horiz-adv-x="1024" />

    
    <glyph glyph-name="dianhua" unicode="&#59084;" d="M422.886141 544.186859l-84.387605-85.867119c43.951301-97.54965 137.128962-206.198218 245.249204-242.706897l72.958997 72.724527s172.964948-30.19233 211.845969-49.066632c33.696066-16.355544 44.831843-52.572416 39.555762-97.258867-5.669253-48.029437-68.564481-153.918633-181.958757-155.08791-113.392228-1.166205-280.33673 84.242213-399.957253 210.287615-119.619499 126.047451-226.280705 285.789944-209.20844 421.452702 17.072264 135.663782 135.245013 159.919625 164.817892 162.097429 29.886189 2.20033 53.620874-6.571296 71.641256-28.915546 23.201241-28.766058 69.442974-207.659302 69.442975-207.659302z m-95.814165 179.621226c-14.065113 18.400243-38.238021 21.46678-62.411954 15.770906-21.454493-5.054922-99.693666-37.511063-110.756747-124.420497-12.306078-96.674228 59.773401-260.231718 189.145408-385.379173 129.374054-125.146432 253.988065-198.204745 361.126401-206.933368 107.13936-8.731694 159.398467 85.576335 167.016175 113.906219 7.617707 28.330907 1.318764 56.953621-14.065113 68.343321-19.616619 14.525861-188.112307 44.686451-188.112308 44.686451l-76.476042-75.35284c-125.700354 40.890908-244.076855 155.380741-294.474539 295.279313l83.508087 84.115251c0.001024 0.001024-40.435279 151.584175-54.499368 169.984417z"  horiz-adv-x="1024" />

    
    <glyph glyph-name="fangdajing" unicode="&#58894;" d="M477.202 49.966c-200.71 0-364 163.29-364 364s163.29 364 364 364 364-163.29 364-364-163.29-364-364-364z m0 692c-180.86 0-328-147.14-328-328s147.14-328 328-328 328 147.14 328 328c0 180.862-147.14 328-328 328zM886.106-9.964a17.934 17.934 0 0 0-12.254 4.818l-168.732 156.894a18 18 0 0 0-0.924 25.44 18 18 0 0 0 25.44 0.924l168.732-156.894a18 18 0 0 0-12.262-31.182z"  horiz-adv-x="1024" />

    
    <glyph glyph-name="wujiaoxing" unicode="&#58883;" d="M532.2 793.4l120.7-244.6c3.1-6.1 8.9-10.4 15.6-11.4l270-39.2c17-2.5 23.7-23.3 11.5-35.2L754.5 272.6c-4.8-4.7-7.1-11.6-5.9-18.3l46.1-268.9c2.9-16.9-14.8-29.8-30-21.8l-241.5 127c-6 3.2-13.2 3.2-19.3 0l-241.5-127c-15.2-8-32.9 4.9-30 21.8l46.1 268.9c1.2 6.7-1.1 13.5-5.9 18.3L77.3 463c-12.2 11.9-5.4 32.8 11.5 35.2l270 39.2c6.7 1 12.5 5.2 15.6 11.4l120.7 244.6c7.6 15.5 29.5 15.5 37.1 0z"  horiz-adv-x="1024" />

    
    <glyph glyph-name="quanbudingdan" unicode="&#58884;" d="M882.360608 688.600393H145.659963c-59.269895 0-107.48706-48.219211-107.48706-107.488083v-460.406948c0-59.268872 48.217165-107.48706 107.48706-107.48706h736.700645c59.268872 0 107.48706 48.218188 107.487059 107.48706V581.11231c0 59.268872-48.218188 107.488083-107.487059 107.488083z m66.554811-567.895031c0-36.697807-29.858028-66.554812-66.554811-66.554812H145.659963c-36.697807 0-66.554812 29.857005-66.554812 66.554812V581.11231c0 36.69883 29.857005 66.555835 66.554812 66.555835h736.700645c36.697807 0 66.554812-29.857005 66.554811-66.555835v-460.406948zM732.836129 578.61135H295.184441c-36.696784 0-66.554812-29.857005-66.554812-66.555836 0-36.69883 29.858028-66.554812 66.554812-66.554811h437.651688c36.697807 0 66.554812 29.855982 66.554812 66.554811s-29.857005 66.555835-66.554812 66.555836z m0-102.411462H295.184441c-19.769252 0-35.855626 16.084327-35.855626 35.855626s16.086373 35.856649 35.855626 35.85665h437.651688c19.770276 0 35.855626-16.08535 35.855626-35.85665 0-19.771299-16.08535-35.855626-35.855626-35.855626z"  horiz-adv-x="1024" />

    
    <glyph glyph-name="zuo" unicode="&#58914;" d="M713.216-56.32c11.776-10.752 30.72-10.24 41.472 2.048s10.24 30.72-2.048 41.472L325.632 373.76c-10.752 10.24-10.752 24.064 0.512 34.304l425.984 372.736c12.288 10.752 13.312 29.184 2.56 41.472-10.752 12.288-29.184 13.312-41.472 2.56L287.232 452.096c-37.888-33.28-38.4-88.576-1.024-121.856l427.008-386.56z"  horiz-adv-x="1024" />

    
    <glyph glyph-name="xihuan" unicode="&#59004;" d="M1020.81016 600c-14.4 85.6-61.6 152.8-141.6 200-45.6 27.2-97.6 41.6-148.8 41.6-66.4 0-128.8-24-176.8-68-15.2-13.6-28-28.8-41.6-43.2-40.8 49.6-81.6 80-129.6 96-84 28-168 17.6-245.6-32C45.61016 737.6-0.78984 655.2 0.01016 550.4c0.8-61.6 20.8-120 62.4-178.4 44.8-62.4 100-126.4 172.8-200.8 49.6-50.4 100.8-100 149.6-148l48-47.2c4-4 8.8-8 12.8-12.8l5.6-4.8c10.4-8.8 32-23.2 60-23.2 23.2 0 45.6 9.6 65.6 28.8 84 79.2 173.6 164.8 258.4 256.8 44 48 94.4 104 136 166.4 44.8 68 61.6 140 49.6 212.8m-92-184c-39.2-59.2-85.6-111.2-130.4-160-84-91.2-172.8-176-256-254.4-10.4-9.6-20.8-14.4-30.4-14.4-12 0-21.6 7.2-25.6 9.6l-4 4c-4 4-8 8-12.8 12l-48 47.2C372.01016 108 320.81016 157.6 272.01016 208c-72 72.8-124 133.6-168 194.4-35.2 49.6-52.8 98.4-52.8 148.8 0 86.4 36.8 152 113.6 200.8 40.8 25.6 83.2 39.2 126.4 39.2 24.8 0 49.6-4 75.2-12.8 40-13.6 74.4-40 110.4-84.8 2.4-3.2 15.2-16.8 36-16.8 8.8 0 22.4 3.2 34.4 16.8l2.4 2.4c13.6 14.4 25.6 28.8 39.2 41.6 38.4 36 88 54.4 141.6 54.4 42.4 0 84.8-12 123.2-34.4 67.2-40 105.6-93.6 116.8-164 9.6-62.4-4-120-41.6-177.6M512.01016-61.6c-27.2 0-48 13.6-58.4 22.4l-5.6 4.8c-4 4-8.8 8-12.8 12.8l-51.2 50.4c-48.8 47.2-98.4 96-147.2 144.8C164.01016 248 108.81016 311.2 64.01016 374.4 23.21016 432 3.21016 489.6 2.41016 550.4c-0.8 104 44.8 185.6 136 243.2C187.21016 824 238.41016 840 291.21016 840c29.6 0 60-4.8 90.4-15.2 48-16 88.8-46.4 128.8-95.2l1.6-2.4 1.6 2.4c12 13.6 26.4 28.8 40.8 43.2 48 43.2 110.4 67.2 176 67.2 51.2 0 102.4-14.4 148-41.6 79.2-47.2 126.4-113.6 140-198.4 12-72.8-4-143.2-48.8-210.4-40.8-62.4-91.2-118.4-135.2-166.4-84.8-92-174.4-177.6-258.4-256.8-20-18.4-41.6-28-64-28zM291.21016 793.6c-43.2 0-86.4-13.6-128-39.2-77.6-49.6-114.4-116-114.4-203.2 0-51.2 17.6-100 53.6-149.6 44-61.6 96-121.6 168-195.2 48-48.8 98.4-97.6 147.2-145.6l50.4-49.6 9.6-9.6 7.2-6.4c4-3.2 14.4-10.4 27.2-10.4 10.4 0 21.6 4.8 32 15.2 83.2 78.4 172 164 256 254.4 44.8 48.8 92 100.8 130.4 160 38.4 57.6 52 116 41.6 177.6-12 71.2-50.4 125.6-118.4 166.4-38.4 22.4-81.6 35.2-124 35.2-54.4 0-104-19.2-143.2-55.2-13.6-12.8-25.6-26.4-39.2-40.8l-2.4-3.2c-12-12.8-24-16-32.8-16-19.2 0-31.2 13.6-33.6 16-36 44.8-71.2 72-112 85.6-25.6 8.8-50.4 13.6-75.2 13.6z"  horiz-adv-x="1024" />

    
    <glyph glyph-name="tuihuanhuo" unicode="&#59066;" d="M877 64H147c-38.6 0-70 31.4-70 70V634c0 38.6 31.4 70 70 70h730c38.6 0 70-31.4 70-70v-500c0-38.6-31.4-70-70-70zM147 664c-16.5 0-30-13.5-30-30v-500c0-16.5 13.5-30 30-30h730c16.5 0 30 13.5 30 30V634c0 16.5-13.5 30-30 30H147zM786.2 409H238.8c-11 0-20 9-20 20s9 20 20 20h547.4c11 0 20-9 20-20s-9-20-20-20zM235.2 409.3c-6.2 0-12.2 2.8-16.2 8.2-2.6 3.6-3.9 7.7-3.9 11.8 0 6.2 2.8 12.2 8.2 16.2l96.8 70.7c8.9 6.5 21.4 4.6 27.9-4.3 2.6-3.6 3.9-7.7 3.9-11.8 0-6.2-2.8-12.2-8.2-16.2L247 413.2c-3.6-2.6-7.7-3.9-11.8-3.9zM785.2 319H237.8c-11 0-20 9-20 20s9 20 20 20h547.4c11 0 20-9 20-20s-8.9-20-20-20zM692.1 248c-6.2 0-12.2 2.8-16.2 8.2-2.6 3.6-3.9 7.7-3.9 11.8 0 6.2 2.8 12.2 8.2 16.2l96.8 70.7c8.9 6.5 21.4 4.6 27.9-4.3 2.6-3.6 3.9-7.7 3.9-11.8 0-6.2-2.8-12.2-8.2-16.2l-96.8-70.7c-3.5-2.7-7.7-3.9-11.7-3.9z"  horiz-adv-x="1024" />

    


  </font>
</defs>
</svg>
